<svg width="1289" height="751" viewBox="0 0 1289 751" fill="none" xmlns="http://www.w3.org/2000/svg">
<path fill-rule="evenodd" clip-rule="evenodd" d="M220.989 326.869C243.452 339.504 255.2 365.328 258.997 390.88C262.36 413.52 248.603 432.992 239.908 454.197C229.083 480.595 228.575 515.427 202.874 527.74C175.674 540.77 144.917 524.849 117.287 512.941C85.1486 499.09 46.3732 488.12 34.4597 455.156C22.1788 421.175 35.9073 381.026 59.7738 353.805C80.479 330.189 115.449 332.689 146.361 327.524C171.883 323.26 198.469 314.202 220.989 326.869Z" fill="#FFEC9D"/>
<path fill-rule="evenodd" clip-rule="evenodd" d="M996.313 362.915C949.576 389.697 908.428 452.381 857.867 433.594C807.695 414.952 813.181 342.018 800.098 290.007C788.928 245.6 763.817 196.748 788.64 158.387C812.678 121.241 867.168 129.903 910.201 119.859C945.339 111.657 977.978 98.9027 1013.4 105.924C1063.45 115.846 1129.35 119.099 1147.56 166.907C1165.76 214.723 1119.15 261.329 1087.97 301.738C1064.62 331.994 1029.44 343.931 996.313 362.915Z" fill="#F2FBFB"/>
<path fill-rule="evenodd" clip-rule="evenodd" d="M1220.76 492.818C1234.15 489.541 1250.49 484.709 1260.53 494.163C1270.55 503.602 1265.63 520.032 1264.2 533.726C1263.05 544.727 1260.95 555.767 1253.26 563.714C1245.74 571.478 1235 574.617 1224.2 575.036C1213.44 575.453 1203.68 571.568 1194.47 565.993C1181.96 558.424 1162.79 552.58 1162.94 537.962C1163.1 523.251 1183.45 519.237 1195.05 510.182C1203.52 503.566 1210.32 495.373 1220.76 492.818Z" fill="#FFEC9D"/>
<path d="M716.835 572.448C729.049 584.271 741.748 596.382 757.627 602.446C770.477 607.339 784.523 607.897 797.808 611.406C823.64 618.195 846.158 636.601 857.975 660.531C844.608 645.664 829.995 630.3 810.727 624.925C797.249 621.16 782.831 622.734 769.168 619.707C755.437 616.655 743.003 609.046 732.695 599.46C722.387 589.874 714.068 578.375 706.508 566.496L716.835 572.448Z" fill="#CE6725"/>
<path d="M588.81 585.363C587.751 585.324 562.732 636.714 597.155 668.579L570.154 695.089C567.133 698.071 567.56 703.075 571.063 705.461C573.288 706.986 576.198 707.047 578.463 705.618L633.003 671.309L657.181 633.048L638.206 577.548L588.81 585.363Z" fill="#CE6725"/>
<path d="M212.881 586.076C224.537 584.064 236.297 588.511 246.899 593.751C257.501 598.99 267.933 605.195 279.607 607.043C291.28 608.913 304.873 605.188 310.535 594.807L347.841 620.705C344.715 630.885 340.909 641.13 334.085 649.323C327.283 657.518 316.929 663.438 306.307 662.464C288.482 660.865 278.069 642.404 264.683 630.539C253.899 620.981 239.839 615.231 225.438 614.48C219.984 614.191 214.415 614.597 209.136 613.231C203.857 611.865 198.684 608.2 197.569 602.854C195.84 594.552 204.542 587.51 212.881 586.076Z" fill="#CE6725"/>
<path d="M715.068 651.277C703.38 666.54 685.015 676.66 665.987 678.336C660.528 678.792 655.004 678.568 649.554 677.579C650.811 678.392 651.858 679.401 652.696 680.56C657.085 686.522 655.872 696.252 650.889 702.255C644.959 709.465 635.628 712.692 626.807 715.575C619.151 718.095 611.519 720.593 603.863 723.113C600.8 724.13 597.557 725.141 594.419 724.484C594.33 724.459 594.262 724.456 594.173 724.43C590.973 723.636 588.185 720.216 589.291 717.141C590.097 714.846 592.579 713.65 594.804 712.692C606.068 707.844 617.355 702.973 628.595 698.146C618.252 682.712 613.761 663.452 616.148 645.051C618.051 630.628 624.176 616.856 633.437 605.614C603.733 596.652 571.75 595.689 541.372 602.121C541.304 602.118 541.236 602.138 541.167 602.158C511.972 608.339 484.29 621.325 461.504 640.607C445.336 654.261 430.511 671.305 410.059 676.744C406.753 677.617 403.391 678.172 400.019 678.387C384.967 679.373 369.576 674.207 356.807 665.841C311.796 636.389 299.71 575.902 264.409 535.27C258.991 529.045 253.058 523.321 246.678 518.099C244.793 516.541 242.861 515.025 240.883 513.554C240.729 513.435 240.553 513.316 240.399 513.197C227.408 503.514 212.925 495.717 197.859 489.682C190.203 486.626 181.915 483.547 174.66 479.423C171.496 477.637 168.52 475.655 165.87 473.391C161.667 469.784 158.324 465.464 156.397 460.111C162.428 463.762 168.57 467.462 175.017 470.248C179.218 472.072 183.523 473.516 188.033 474.312C190.523 474.764 193.089 474.971 195.665 474.929L195.687 474.93C200.5 474.835 205.299 473.881 209.593 471.938C210.35 471.605 211.063 471.247 211.778 470.844C213.138 470.081 214.433 469.226 215.621 468.23C217.087 467.042 218.402 465.668 219.564 464.13C216.159 465.248 212.632 466 209.051 466.343C208.598 466.394 208.145 466.445 207.692 466.474C207.42 466.509 207.126 466.521 206.854 466.534C199.565 467.035 192.152 465.998 185.242 463.533C180.494 461.848 175.996 459.494 171.95 456.525C158.538 446.6 150.292 430.024 150.563 413.307C150.584 411.479 150.789 409.59 151.149 407.753C152.073 402.843 154.188 398.112 157.812 395.309C158.976 394.359 160.334 393.641 161.842 393.176C166.065 391.908 169.935 392.907 173.675 394.985C179.694 398.342 185.252 404.459 191.161 408.354C203.947 416.857 220.566 415.002 235.863 415.944C262.67 417.666 288.707 429.338 307.753 448.227C323.924 464.212 335.659 485.453 355.75 496.095C370.68 504.021 387.991 504.833 405.12 504.465C408.917 504.378 412.693 504.222 416.446 504.088C452.78 502.772 514.523 504.347 564.285 506.297C605.165 507.878 637.951 509.706 641.97 510.349C656.047 512.533 669.745 517.096 682.061 524.249C682.503 524.514 682.945 524.778 683.387 525.043C704.203 537.495 720.793 557.468 727.463 580.736C728.985 586.051 729.959 591.549 730.39 597.073C731.88 616.27 726.779 636.016 715.068 651.277Z" fill="#CE6725"/>
<path opacity="0.36" d="M703.387 653.381C694.117 665.481 680.652 674.358 665.988 678.337C661.632 679.51 657.179 680.274 652.698 680.562C647.765 680.856 642.784 680.584 637.872 679.682C645.725 684.777 645.137 697.193 639.208 704.358C633.277 711.569 623.947 714.795 615.126 717.679C608.224 719.955 601.323 722.209 594.421 724.486C594.331 724.46 594.264 724.457 594.174 724.432C590.974 723.638 588.186 720.218 589.292 717.143C590.098 714.847 592.581 713.651 594.806 712.694C606.069 707.845 617.356 702.975 628.596 698.148C618.253 682.714 613.762 663.453 616.149 645.052C618.053 630.63 624.177 616.858 633.439 605.615C603.734 596.654 571.752 595.69 541.373 602.122C541.306 602.12 541.237 602.14 541.169 602.16C507.751 607.103 475.637 620.876 449.823 642.711C434.097 655.997 419.631 672.49 400.02 678.389C384.969 679.375 369.577 674.208 356.809 665.842C311.798 636.39 299.711 575.904 264.411 535.271C258.993 529.046 253.06 523.322 246.68 518.101C244.795 516.542 242.863 515.027 240.884 513.555C240.731 513.437 240.554 513.317 240.401 513.199C227.409 503.515 212.926 495.718 197.86 489.683C190.204 486.628 181.917 483.549 174.661 479.424C171.497 477.638 168.521 475.656 165.872 473.393C169.255 474.735 172.739 475.788 176.351 476.416C182.723 477.551 189.624 477.148 195.666 474.931L195.689 474.932C200.502 474.836 205.301 473.883 209.594 471.94C210.351 471.606 211.064 471.249 211.779 470.846C213.139 470.083 214.435 469.227 215.622 468.232C217.088 467.044 218.403 465.67 219.565 464.132C216.16 465.249 212.633 466.001 209.053 466.344C208.599 466.396 208.146 466.447 207.693 466.475C207.763 466.41 207.812 466.322 207.883 466.234C207.54 466.334 207.197 466.457 206.856 466.535C199.567 467.037 192.153 465.999 185.243 463.535C180.495 461.849 175.998 459.496 171.951 456.526C158.54 446.601 150.293 430.025 150.564 413.308C150.586 411.481 150.79 409.592 151.15 407.754C152.075 402.844 154.189 398.113 157.814 395.311C159.222 395.701 160.622 396.316 161.994 397.089C168.013 400.446 173.57 406.563 179.48 410.458C192.266 418.96 208.884 417.106 224.182 418.047C250.989 419.77 277.026 431.442 296.072 450.331C312.243 466.316 323.977 487.556 344.069 498.199C358.999 506.125 376.31 506.937 393.439 506.568C397.236 506.481 401.012 506.325 404.765 506.191C441.099 504.875 502.842 506.45 552.604 508.401C593.483 509.982 626.27 511.81 630.288 512.453C644.366 514.637 658.064 519.2 670.38 526.353C670.822 526.617 671.264 526.882 671.705 527.146C692.521 539.599 709.112 559.572 715.782 582.84C717.304 588.155 718.278 593.653 718.708 599.177C720.199 618.373 715.098 638.12 703.387 653.381Z" fill="#CE6725"/>
<path d="M598.283 520.11C596.814 515.813 593.413 512.484 588.96 511.396C584.238 510.23 579.523 511.345 574.756 511.419C570.012 511.495 567.083 509.446 564.285 506.297C514.523 504.347 452.78 502.772 416.447 504.088C412.693 504.222 408.917 504.378 405.12 504.465C404.455 505.998 403.9 507.603 403.478 509.258C400.999 519.032 404.454 528.933 411.794 535.701C419.724 542.988 430.348 545.769 440.907 545.996C452.979 546.233 464.761 543.254 476.735 542.449C482.846 542.04 488.935 542.262 495.009 542.89C496.122 543.314 497.236 543.739 498.326 544.162C508.478 548.144 518.35 552.342 529.14 554.293C548.947 557.86 570.564 555.781 587.366 543.933C594.991 538.568 601.63 529.871 598.283 520.11Z" fill="#FFF7EC"/>
<path d="M367.185 595.543C364.372 592.189 360.151 590.929 356.479 588.831C347.013 583.407 344.622 571.559 340.076 562.5C335.846 554.038 328.532 545.939 318.349 545.928C308.189 545.896 302.513 554.177 301.25 563.431C299.987 572.685 302.567 582.418 306.829 590.61C311.828 600.273 319.566 609.133 328.578 615.263C329.283 615.74 330.034 616.197 330.808 616.631C335.574 620.913 341.478 623.725 348.222 623.316C357.16 622.784 365.955 617.507 369.116 608.841C370.747 604.363 370.324 599.269 367.185 595.543Z" fill="#FFF7EC"/>
<path d="M727.466 580.736C720.796 557.468 704.205 537.495 683.39 525.043C676.548 529.376 672.42 537.938 675.154 545.916C675.806 547.859 676.736 549.608 677.854 551.139C676.085 552.587 674.638 554.498 673.714 556.925C670.347 565.673 677.448 573.427 684.983 576.704C689.184 578.505 693.693 579.324 697.995 580.858C702.698 582.542 705.697 585.134 708.206 589.402C710.374 593.092 712.606 596.898 716.432 599.092C720.348 601.312 725.013 600.94 728.695 598.433C729.297 598.026 729.855 597.573 730.393 597.073C729.962 591.55 728.988 586.051 727.466 580.736Z" fill="#FFF7EC"/>
<path d="M172.857 398.816C171.155 404.623 161.564 411.293 153.61 408.972C145.656 406.65 142.333 396.235 144.012 390.427C145.715 384.62 153.541 381.768 161.494 384.09C169.472 386.39 174.56 392.986 172.857 398.816Z" fill="#341212"/>
<path d="M413.026 633.715C421.508 642.602 426.777 654.148 429.935 666.002C433.069 677.877 434.225 690.154 435.337 702.384C438.017 695.755 443.743 690.433 450.551 688.266C454.595 686.969 460.089 687.395 461.752 691.316C463.373 695.167 460.085 699.246 456.959 702.021C452.036 706.356 446.832 710.365 441.35 713.958C436.168 717.358 430.317 720.53 424.147 720.057C418.968 719.665 414.333 716.742 410.203 713.589C394.234 701.359 382.388 684.403 373.448 666.402C368.569 656.563 364.431 646.209 362.999 635.321C361.567 624.434 363.003 612.906 368.653 603.496C371.106 599.386 374.402 595.692 378.53 593.314C382.681 590.937 387.752 589.971 392.356 591.268C396.96 592.564 400.676 595.928 404.075 599.302C413.382 608.49 421.975 618.668 427.366 630.558C432.781 642.449 434.76 656.291 430.739 668.717" fill="#CE6725"/>
<path d="M280.343 439.44C282.984 435.766 287.113 433.366 291.528 432.421C297.266 430.486 303.742 430.609 309.852 431.464C325.444 433.613 340.284 439.685 354.075 447.231C362.554 451.874 370.784 457.14 377.626 463.959C380.327 466.653 382.859 469.68 383.945 473.331C385.053 476.984 384.42 481.362 381.551 483.876C378.868 486.239 374.998 486.481 371.448 486.6C362.744 486.915 354.016 487.251 345.311 487.566C331.971 488.05 318.339 488.501 305.59 484.559C292.841 480.618 280.941 471.358 277.527 458.457C275.841 452.075 276.466 444.829 280.343 439.44Z" fill="#CE6725"/>
<ellipse cx="253.131" cy="444.857" rx="11.25" ry="15" fill="white"/>
<ellipse cx="256.131" cy="444.857" rx="5.25" ry="7.5" fill="#4D4D4D"/>
<path d="M1018.27 495.257C1017.5 493.231 1015.9 491.671 1014.32 490.173C1016.74 489.894 1018.87 487.745 1020.23 485.717C1021.58 483.703 1021.88 480.991 1020.84 478.79C1019.43 475.871 1016.16 474.442 1013.14 473.265C1012.31 470.836 1010.96 469.442 1010.09 467.026C996.544 429.619 972.025 397.344 947.232 366.245C941.981 359.663 936.625 353.053 931.135 346.548C928.042 341.154 924.755 335.873 921.162 330.825C927.06 329.402 932.843 327.534 938.611 325.68C945.679 323.388 952.803 321.077 959.261 317.403C965.715 313.717 971.538 308.545 974.72 301.827C973.581 301.768 972.443 301.891 971.342 302.2C982.788 292.225 986.407 274.999 982.509 260.267C978.523 245.197 966.664 235.685 956.42 223.949C951.257 217.994 944.321 213.62 936.731 211.464C934.866 210.948 932.218 211.002 931.782 212.887C931.622 213.538 931.835 214.22 932.076 214.874C932.795 216.747 933.179 218.805 934.388 220.386C907.887 201.576 877.248 189.53 849.232 173.067C847.609 172.122 846.008 171.146 844.42 170.184C840.715 167.897 838.996 167.243 836.209 163.908C821.183 146.04 805.807 127.843 785.783 115.859C782.937 114.162 779.158 112.605 776.487 114.598C774.793 115.852 774.224 118.235 774.669 120.306C775.115 122.377 775.958 122.722 777.411 124.267C768.291 115.53 756.365 109.792 743.875 108.079C741.995 107.817 739.887 107.702 738.379 108.871C737.228 109.766 736.684 111.209 736.259 112.589C729.145 135.257 734.841 160.053 747.496 180.138C745.968 178.671 744.437 177.183 742.894 175.701C743.585 182.955 748.72 188.957 754.072 193.916C766.114 205.087 780.457 213.757 795.947 219.219C802.772 221.605 809.778 223.386 816.84 224.938C820.885 225.815 824.958 226.644 829.022 227.441C833.867 228.417 838.711 229.392 843.564 230.342C851.789 231.991 860.006 233.637 868.231 235.285C870.415 235.715 872.576 236.156 874.759 236.615C883.958 238.541 893.114 240.874 901.496 245.122L901.592 245.176C909.985 249.447 918.184 255.968 922.702 264.221C923.779 266.166 924.638 268.234 925.242 270.372C924.361 268.68 923.263 267.11 921.963 265.726C920.553 264.197 918.923 262.875 917.152 261.838C916.146 263.39 916.58 265.284 917.362 267.036C917.619 267.648 917.917 268.226 918.227 268.77C920.446 272.877 922.553 277.212 922.834 281.87C922.999 284.424 922.612 286.912 921.848 289.301C920.516 293.545 918.009 297.535 915.224 301.078C913.54 303.228 911.719 305.309 909.528 306.901C909.333 307.069 909.118 307.212 908.909 307.337C906.954 308.65 904.397 309.168 901.937 309.76C901.811 309.657 901.706 309.551 901.586 309.46C900.793 308.817 900 308.202 899.201 307.576C893.423 303.076 887.393 299.032 881.16 295.441C880.051 294.797 878.936 294.171 877.806 293.559C841.161 273.553 797.615 268.112 755.09 273.21C745.117 274.417 735.194 276.17 725.445 278.475C721.561 279.393 717.708 280.389 713.883 281.463C717.294 268.815 717.962 255.456 715.831 242.537C715.629 241.351 714.629 240.488 713.438 240.439C709.806 240.298 706.202 243.14 703.377 245.815C699.93 249.07 696.482 252.324 693.04 255.59C686.983 248.878 678.215 245.056 669.029 243.729C664.884 243.152 660.674 243.098 656.583 243.48C647.115 233.907 635.875 226.097 623.55 220.635C622.442 220.146 621.164 220.813 620.95 221.982C618.862 233.127 619.213 244.688 621.921 255.678C619.614 256.93 617.318 258.205 615.042 259.506C603.531 265.995 591.776 273.154 584.051 283.763C582.84 285.433 582.175 287.445 582.23 289.508C582.373 295.181 583.321 300.802 585.139 306.115C560.648 312.372 537.246 322.939 516.404 337.228C513.38 335.466 509.144 334.587 505.646 334.946C503.059 335.204 500.38 336.186 498.891 338.302C497.391 340.422 497.629 343.828 499.866 345.169C494.343 346.479 488.998 351.681 487.498 357.15C486.998 359.001 486.822 360.961 487.213 362.84C487.794 365.593 489.584 368.028 491.941 369.567C494.295 371.085 497.192 371.717 499.984 371.504C499.466 374.405 498.067 377.329 499.944 379.605C501.531 381.544 504.359 382.103 506.811 381.613C509.257 381.112 511.436 379.737 513.496 378.318C516.535 376.239 519.528 373.97 521.663 370.949C542.127 365.663 563.095 363.266 584.151 361.151C561.742 367.196 539.816 375.077 518.698 384.719C511.16 381.363 500.313 385.13 495.403 391.746C494.417 393.086 493.599 394.649 493.643 396.296C493.672 397.956 494.84 399.676 496.498 399.838C491.71 399.976 486.452 404.778 485.308 409.427C484.167 414.067 486.488 419.342 490.683 421.626C494.884 423.922 500.599 422.979 503.82 419.45C502.237 423.248 501.096 427.466 503.042 431.109C503.786 432.493 504.868 433.817 506.364 434.265C507.323 434.556 508.353 434.441 509.338 434.263C516.378 433.054 522.806 428.725 526.569 422.651C569.437 406.694 613.989 400.243 659.743 399.533C705.471 398.814 751.156 404.333 796.066 412.956C821.828 417.895 843.206 428.635 864.802 443.473C900.935 468.29 933.975 498.523 957.201 535.671C956.408 538.538 955.114 542.068 955.281 545.064C955.457 548.034 956.8 551.122 959.399 552.624C961.977 554.108 965.843 553.394 967.123 550.694C968.809 554.022 971.611 557.449 975.001 558.941C978.421 560.454 983.049 559.653 984.916 556.418C986.778 553.144 985.287 549.042 983.743 545.613C984.696 546.842 986.257 543.765 987.486 542.811C991.022 540.078 992.929 535.391 992.29 530.976C991.679 526.562 988.571 522.583 984.424 520.93C983.328 509.808 980.308 498.254 978.757 487.196C978.218 483.508 977.636 479.834 977.02 476.147C982.364 481.314 987.528 486.684 992.449 492.272C992.155 496.194 993.181 499.992 995.858 502.865C996.714 503.78 997.744 504.615 998.978 504.834C1001.39 505.279 1003.83 502.656 1003.2 500.277C1003.81 504.338 1009.37 506.083 1013.33 505.009C1017.29 503.936 1019.74 499.101 1018.27 495.257Z" fill="#B9C2C9"/>
<ellipse cx="665.379" cy="277.524" rx="9.5" ry="12.6667" fill="white"/>
<ellipse cx="664.113" cy="278.79" rx="4.43333" ry="6.33333" fill="#4D4D4D"/>
<ellipse cx="639.379" cy="273.524" rx="9.5" ry="12.6667" fill="white"/>
<ellipse cx="638.113" cy="274.79" rx="4.43333" ry="6.33333" fill="#4D4D4D"/>
<path d="M623.535 232.65C622.427 232.161 621.149 232.827 620.932 234.005C618.847 245.141 619.198 256.703 621.906 267.692C623.286 266.957 624.68 266.236 626.057 265.538C625.873 265.173 625.873 265.173 626.057 265.538C630.998 263.028 636.042 260.738 641.211 258.973C640.805 258.404 640.808 258.395 641.211 258.973C645.322 257.562 649.506 256.475 653.798 255.83C654.715 255.684 655.647 255.601 656.565 255.503C647.097 245.93 635.857 238.12 623.535 232.65Z" fill="#B9C2C9"/>
<path d="M1014.32 502.176C1016.74 501.894 1018.87 499.745 1020.22 497.722C1021.57 495.708 1021.87 492.988 1020.83 490.786C1019.42 487.868 1016.15 486.439 1013.13 485.262C1012.31 482.833 1010.95 481.439 1010.08 479.023C996.535 441.616 972.017 409.341 947.224 378.241C941.973 371.66 936.617 365.05 931.127 358.545C932.477 360.926 933.798 363.305 935.09 365.713C955.562 403.893 969.758 445.429 977.003 488.141C982.35 493.299 987.511 498.678 992.436 504.258C992.141 508.179 993.168 511.977 995.844 514.85C996.704 515.757 997.73 516.601 998.965 516.819C1001.37 517.264 1003.81 514.641 1003.18 512.263C1003.8 516.323 1009.36 518.059 1013.32 516.995C1017.27 515.93 1019.72 511.094 1018.25 507.25C1017.49 505.248 1015.9 503.671 1014.32 502.176Z" fill="#B9C2C9"/>
<path d="M623.71 361.123C614.11 355.502 606.413 347.206 598.893 339.003C596.078 335.956 593.262 332.859 590.867 329.475C588.373 325.968 586.495 322.139 585.121 318.138C560.63 324.395 537.228 334.962 516.385 349.251C513.362 347.489 509.126 346.61 505.628 346.968C503.041 347.226 500.362 348.209 498.873 350.324C497.373 352.445 497.611 355.851 499.85 357.183C494.325 358.502 488.98 363.704 487.48 369.173C486.979 371.024 486.804 372.984 487.195 374.862C487.776 377.616 489.566 380.051 491.923 381.589C494.277 383.107 497.166 383.736 499.966 383.527C499.448 386.427 498.049 389.352 499.926 391.627C501.513 393.567 504.341 394.125 506.793 393.636C509.239 393.135 511.417 391.759 513.478 390.341C516.517 388.262 519.51 385.993 521.645 382.971C542.109 377.686 563.077 375.289 584.133 373.173C597.037 369.685 610.13 366.812 623.308 364.574C623.46 363.287 624.819 361.766 623.71 361.123Z" fill="#B9C2C9"/>
<path d="M604.06 312.46C605.454 312.9 606.052 310.834 606.433 309.419C606.525 309.059 606.665 308.726 606.825 308.391C608.935 303.989 615.704 302.125 616.229 297.174C616.682 293.08 612.391 290.032 608.374 289.051C589.445 284.391 595.132 301.193 602.337 310.711C602.59 311.043 602.83 311.36 603.084 311.663C603.36 312.013 603.65 312.349 604.06 312.46Z" fill="#212121"/>
</svg>
