<svg width="151" height="113" viewBox="0 0 151 113" fill="none" xmlns="http://www.w3.org/2000/svg">
<path fill-rule="evenodd" clip-rule="evenodd" d="M80.1953 63.9579C86.8209 57.0636 90.8938 47.6978 90.8938 37.3807C90.8938 26.9345 86.7183 17.4635 79.9453 10.5458C84.3372 7.53648 89.5125 5.59973 95.0995 5.10975C101.405 3.99755 106.664 0 106.664 0C106.664 0 109.484 5.9549 114.734 9.78981L114.71 9.78392C121.097 13.7633 125.988 19.9441 128.338 27.2741L128.339 27.1695C130.743 33.1794 135.866 37.546 135.866 37.546C135.866 37.546 130.88 41.6437 128.216 47.4346C123.959 60.1725 111.999 69.3471 97.9104 69.3471C91.358 69.3471 85.2661 67.3625 80.1953 63.9579ZM93.8362 9.86269C100.218 8.47467 105.395 4.82781 105.395 4.82781C105.395 4.82781 108.052 9.88335 112.654 13.7757C117.754 16.9709 121.741 21.7786 123.9 27.4844C126.675 33.1288 131.345 37.0859 131.345 37.0859C131.345 37.0859 126.376 41.7878 123.63 47.7995C119.491 57.914 109.551 65.0395 97.9469 65.0395C93.762 65.0395 89.7935 64.1127 86.2355 62.4533C92.0611 55.7259 95.5858 46.9514 95.5858 37.3536C95.5858 27.7195 92.0343 18.9148 86.1691 12.1775C88.5583 11.0554 91.1336 10.2642 93.8362 9.86269Z" fill="white"/>
<path fill-rule="evenodd" clip-rule="evenodd" d="M103.998 24.0867C104.284 23.952 104.626 24.0747 104.76 24.3608L106.933 28.9747C107.067 29.2608 106.945 29.6019 106.659 29.7367C106.372 29.8714 106.031 29.7486 105.897 29.4625L103.724 24.8487C103.589 24.5626 103.712 24.2214 103.998 24.0867Z" fill="white"/>
<path fill-rule="evenodd" clip-rule="evenodd" d="M104.908 30.8559C104.668 31.0623 104.307 31.0353 104.1 30.7957L100.766 26.9252C100.56 26.6856 100.587 26.3241 100.826 26.1177C101.066 25.9113 101.428 25.9382 101.634 26.1778L104.968 30.0483C105.175 30.2879 105.148 30.6494 104.908 30.8559Z" fill="white"/>
<path fill-rule="evenodd" clip-rule="evenodd" d="M117.779 45.6221C117.536 45.825 117.175 45.7929 116.972 45.5503L113.658 41.5891C113.455 41.3466 113.487 40.9854 113.73 40.7825C113.972 40.5796 114.333 40.6117 114.536 40.8542L117.851 44.8154C118.054 45.058 118.021 45.4191 117.779 45.6221Z" fill="white"/>
<path fill-rule="evenodd" clip-rule="evenodd" d="M111.979 41.9044C112.266 41.7728 112.606 41.8993 112.738 42.1868L114.89 46.8914C115.022 47.179 114.895 47.5188 114.608 47.6503C114.32 47.7819 113.98 47.6555 113.849 47.3679L111.696 42.6633C111.565 42.3757 111.691 42.036 111.979 41.9044Z" fill="white"/>
<path d="M112.663 30.2085C111.757 30.8656 110.543 30.5513 109.941 29.6108C109.339 28.6703 109.397 27.5418 110.594 26.8538C111.59 26.2166 112.679 26.4557 113.28 27.3962C113.953 28.4474 113.714 29.536 112.663 30.2085Z" fill="white"/>
<path d="M117.84 37.8129C117.01 38.3439 116.28 38.4213 115.523 37.9698C114.857 37.5382 114.342 36.8544 114.612 36.0579C114.806 35.3874 115.183 34.7568 115.917 34.4427C116.541 34.1994 117.05 34.2636 117.646 34.5845C118.997 35.3569 118.816 37.2665 117.84 37.8129Z" fill="white"/>
<path d="M108.007 35.8024C107.831 36.3851 108.216 36.9873 108.819 37.0719L111.532 37.4526C112.371 37.5705 112.963 36.6491 112.506 35.9348L110.584 32.9316C110.127 32.2173 109.043 32.368 108.798 33.1798L108.007 35.8024Z" fill="white"/>
<path fill-rule="evenodd" clip-rule="evenodd" d="M110.475 35.0092C110.744 35.3339 110.699 35.8152 110.374 36.0842C109.644 36.6895 108.441 37.2114 107.16 37.1768C105.823 37.1408 104.449 36.4965 103.506 34.8588C103.295 34.4933 103.421 34.0266 103.786 33.8162C104.152 33.6058 104.619 33.7314 104.829 34.0969C105.501 35.2635 106.383 35.6283 107.201 35.6504C108.075 35.674 108.924 35.3029 109.4 34.9085C109.725 34.6394 110.206 34.6845 110.475 35.0092Z" fill="white"/>
<path fill-rule="evenodd" clip-rule="evenodd" d="M110.59 35.1865C110.408 34.8062 109.952 34.6455 109.572 34.8275C108.716 35.2371 107.738 36.1107 107.233 37.2883C106.705 38.5173 106.714 40.0351 107.806 41.5775C108.05 41.9217 108.526 42.0032 108.871 41.7595C109.215 41.5159 109.296 41.0394 109.053 40.6953C108.275 39.5965 108.313 38.6423 108.636 37.8906C108.981 37.0876 109.674 36.4717 110.231 36.2048C110.612 36.0228 110.772 35.5669 110.59 35.1865Z" fill="white"/>
<path fill-rule="evenodd" clip-rule="evenodd" d="M52.9364 69.5253C70.7089 69.5253 85.1164 55.1178 85.1164 37.3453C85.1164 19.5728 70.7089 5.16528 52.9364 5.16528C38.3908 5.16528 26.0993 14.8157 22.1152 28.0632C19.3105 33.5358 14.7891 37.2821 14.7891 37.2821C14.7891 37.2821 19.3169 41.0984 22.1212 46.6473C26.1116 59.8845 38.3981 69.5253 52.9364 69.5253ZM52.9451 64.8106C68.1491 64.8106 80.4744 52.4854 80.4744 37.2814C80.4744 22.0774 68.1491 9.75209 52.9451 9.75209C40.5408 9.75209 30.0527 17.956 26.6106 29.234C23.8009 34.2065 19.7917 37.5857 19.7917 37.5857C19.7917 37.5857 24.3855 41.4577 27.1846 47.0112C31.1156 57.4134 41.1665 64.8106 52.9451 64.8106Z" fill="white"/>
<path d="M60.0831 31.2405C60.1534 32.4362 59.1687 33.3506 57.973 33.3506C56.7773 33.3506 55.7926 32.6472 55.8629 31.1701C55.8629 29.9041 56.707 29.0601 57.9027 29.0601C59.2391 29.0601 60.0831 29.9041 60.0831 31.2405Z" fill="white"/>
<path d="M69.9311 30.9601C69.9311 32.0152 69.5794 32.7186 68.7354 33.1406C67.9617 33.4922 67.0473 33.5626 66.4846 32.8592C65.9923 32.2965 65.6406 31.5932 65.7813 30.7491C65.9219 30.0458 66.2736 29.6238 66.9066 29.2721C68.3837 28.4984 70.0014 29.7644 69.9311 30.9601Z" fill="white"/>
<path d="M62.3074 38.6775C62.7277 39.1677 63.4861 39.1677 63.9064 38.6775L65.8372 36.4248C66.4226 35.7418 65.9373 34.6866 65.0377 34.6866H61.1761C60.2765 34.6866 59.7912 35.7418 60.3766 36.4248L62.3074 38.6775Z" fill="white"/>
<path fill-rule="evenodd" clip-rule="evenodd" d="M63.0182 37.7516C63.4628 37.7022 63.8633 38.0226 63.9127 38.4672C64.0544 39.7425 63.6361 41.2024 62.7037 42.258C61.7373 43.352 60.2384 43.9849 58.3601 43.5675C57.0836 43.2838 54.54 41.9069 54.2131 38.6372C54.1686 38.1921 54.4933 37.7952 54.9384 37.7507C55.3835 37.7062 55.7804 38.0309 55.825 38.476C56.0607 40.8333 57.878 41.8009 58.7115 41.9861C59.9984 42.2721 60.9026 41.85 61.4896 41.1855C62.1104 40.4827 62.3954 39.4809 62.3027 38.6461C62.2533 38.2015 62.5737 37.801 63.0182 37.7516Z" fill="white"/>
<path fill-rule="evenodd" clip-rule="evenodd" d="M63.2181 37.7516C62.7735 37.7022 62.373 38.0226 62.3236 38.4672C62.1819 39.7425 62.6002 41.2024 63.5327 42.258C64.499 43.352 65.9979 43.9849 67.8762 43.5675C69.1527 43.2838 71.6963 41.9069 72.0233 38.6372C72.0678 38.1921 71.743 37.7952 71.2979 37.7507C70.8528 37.7062 70.4559 38.0309 70.4114 38.476C70.1756 40.8333 68.3583 41.8009 67.5248 41.9861C66.238 42.2721 65.3337 41.85 64.7468 41.1855C64.126 40.4827 63.8409 39.4809 63.9336 38.6461C63.983 38.2015 63.6627 37.801 63.2181 37.7516Z" fill="white"/>
<path fill-rule="evenodd" clip-rule="evenodd" d="M44.1973 25.4723C44.5128 25.9919 44.3473 26.669 43.8277 26.9845C38.6759 30.1124 37.1664 32.7381 36.293 34.8683C36.1452 35.2288 36.0108 35.5975 35.8752 35.9695C35.209 37.7976 34.5142 39.7042 32.0591 41.0918L32.0347 41.1056L32.0097 41.1181C28.3213 42.9623 25.0812 42.291 22.6962 41.0306C20.4239 39.8296 18.901 38.0847 18.4025 37.5135C18.3875 37.4963 18.3734 37.4802 18.3603 37.4652C17.9599 37.0077 18.0063 36.3122 18.4638 35.9119C18.9213 35.5116 19.6168 35.5579 20.0171 36.0155C20.0269 36.0266 20.037 36.0382 20.0476 36.0504C20.5172 36.5877 21.8183 38.0764 23.7249 39.0841C25.6249 40.0883 28.0946 40.6041 30.9999 39.1615C32.6819 38.2028 33.0849 37.1226 33.7293 35.3956C33.884 34.9811 34.0525 34.5294 34.256 34.0331C35.312 31.4575 37.1402 28.4692 42.6851 25.1026C43.2048 24.7871 43.8818 24.9526 44.1973 25.4723Z" fill="white"/>
<path d="M89.6607 89.4741C90.4081 89.4741 90.7818 89.4928 90.7818 89.5302C90.7818 89.5675 90.651 89.9039 90.3894 90.5392C90.1278 91.1371 89.8102 91.7537 89.4365 92.389C89.0628 92.987 88.8759 93.2953 88.8759 93.314C88.8759 93.3326 90.0157 93.342 92.2953 93.342H95.7148V93.1738V93.0057H96.8919L98.1252 93.0617V100.573C98.1252 105.618 98.0878 108.253 98.0131 108.477C97.9757 108.701 97.9009 108.926 97.7888 109.15C97.6767 109.374 97.5273 109.58 97.3404 109.766C97.1535 109.953 96.9667 110.084 96.7798 110.159C96.5556 110.271 96.3127 110.327 96.0511 110.327H95.7148V102.367L95.6587 94.4071H95.3224H94.986L94.93 94.6873C94.8926 94.7994 94.7618 95.7711 94.5376 97.6022C94.276 99.3587 94.0891 100.442 93.977 100.853C93.9023 101.302 93.7902 101.732 93.6407 102.143C93.5286 102.516 93.3604 102.928 93.1362 103.376C92.912 103.824 92.6971 104.226 92.4915 104.581C92.286 104.936 92.0337 105.319 91.7348 105.73C91.5106 106.029 91.2303 106.384 90.8939 106.795C90.5576 107.132 90.1652 107.505 89.7168 107.917C89.2683 108.29 88.8012 108.645 88.3153 108.982C87.8669 109.281 87.3718 109.57 86.8299 109.85C86.288 110.131 85.9797 110.271 85.9049 110.271C85.8302 110.271 85.7741 110.234 85.7368 110.159C85.6994 110.047 85.6807 109.991 85.6807 109.991C85.6807 109.916 85.8489 109.785 86.1852 109.598C86.5216 109.374 86.8299 109.159 87.1102 108.954C87.3904 108.748 87.7174 108.458 88.0911 108.085C88.5396 107.636 88.8572 107.281 89.0441 107.02C89.3431 106.683 89.6233 106.328 89.8849 105.955C90.1465 105.544 90.4081 105.058 90.6697 104.497C90.9313 103.974 91.1649 103.46 91.3704 102.956C91.576 102.451 91.7535 101.844 91.9029 101.134C92.0898 100.498 92.2206 99.8445 92.2953 99.1718C92.4075 98.387 92.5383 97.4341 92.6877 96.313C92.8746 95.0797 92.9493 94.4444 92.912 94.4071C92.8746 94.3697 92.5943 94.351 92.0711 94.351L91.2863 94.4071L91.0621 95.5282C90.9874 95.9766 90.8566 96.6867 90.6697 97.6583C90.5576 98.2562 90.3894 98.8728 90.1652 99.5082C89.9784 100.106 89.7915 100.583 89.6046 100.938C89.4178 101.293 89.2496 101.601 89.1001 101.863C88.9133 102.124 88.7077 102.386 88.4835 102.647C88.2593 102.946 87.8856 103.339 87.3624 103.824C86.8766 104.31 86.4095 104.721 85.961 105.058C85.4752 105.431 85.0454 105.768 84.6717 106.067L83.999 106.515L83.8869 106.347C83.8122 106.272 83.7748 106.216 83.7748 106.179C83.7748 106.141 83.9056 106.02 84.1672 105.814C84.4288 105.609 84.7091 105.338 85.0081 105.002C85.3444 104.665 85.6247 104.385 85.8489 104.161C86.0731 103.862 86.316 103.507 86.5776 103.096C86.8766 102.647 87.1288 102.218 87.3344 101.806C87.5399 101.395 87.7174 100.984 87.8669 100.573C88.0164 100.2 88.1659 99.7884 88.3153 99.34C88.4275 98.8915 88.6143 97.9946 88.8759 96.6493C89.1375 95.2292 89.2496 94.5005 89.2123 94.4631C89.2123 94.3884 89.0441 94.351 88.7078 94.351C88.3714 94.351 88.1846 94.3697 88.1472 94.4071C88.1098 94.4444 87.9416 94.6686 87.6427 95.0797C87.3437 95.4908 86.9513 95.9766 86.4655 96.5372C86.0171 97.1351 85.6247 97.6209 85.2883 97.9946C84.9894 98.2936 84.8212 98.4618 84.7838 98.4991C84.7465 98.4991 84.6997 98.4618 84.6437 98.387C84.5876 98.3123 84.7091 98.0694 85.0081 97.6583C85.307 97.1725 85.5312 96.7801 85.6807 96.4811C85.8676 96.1822 86.1479 95.659 86.5216 94.9116C86.8205 94.2763 87.0728 93.7157 87.2783 93.2299C87.4839 92.7441 87.6987 92.1648 87.923 91.4921C88.1846 90.7821 88.334 90.2776 88.3714 89.9786L88.4835 89.4741H89.6607ZM83.1021 89.5862V91.7164V93.8465H83.8309H84.5596V94.4071V94.9116H83.8309H83.1021V97.7704V100.573H83.8869H84.7278V101.078V101.582H83.8869H83.1021V105.562V109.598L82.934 109.991C82.8219 110.29 82.7097 110.533 82.5976 110.719C82.4855 110.906 82.3174 111.056 82.0931 111.168C81.8689 111.28 81.626 111.336 81.3644 111.336H81.0281L80.972 106.459V101.638L79.1222 101.582H77.2723V101.078V100.573L79.1222 100.517H80.972V97.7144L81.0281 94.9116H80.2993H79.6267L79.3464 95.4721C79.1595 95.8458 78.9353 96.2008 78.6737 96.5372C78.4121 96.8361 78.1599 97.0884 77.917 97.2939C77.674 97.4995 77.3844 97.7144 77.0481 97.9386C76.7117 98.1628 76.4128 98.2749 76.1512 98.2749H75.7588L76.0951 97.7144C76.3194 97.378 76.5623 96.9483 76.8239 96.4251C77.0854 95.9019 77.291 95.4534 77.4405 95.0797C77.59 94.6686 77.7208 94.2763 77.8329 93.9025C77.945 93.6036 78.0571 93.1738 78.1692 92.6133L78.2813 91.8845H79.2903H80.2993L80.2433 92.2209C80.2059 92.5198 80.1685 92.8001 80.1312 93.0617C80.0564 93.4354 80.0191 93.6596 80.0191 93.7344C80.2059 93.8091 80.3554 93.8465 80.4675 93.8465H81.0281V91.7164V89.5862H82.0371H83.1021Z" fill="white"/>
<path d="M29.1572 88.228H44.7284V87.138H29.1572V88.228Z" fill="white"/>
<path d="M31.8652 92.1654V92.5578L31.9212 93.0063H36.9663H42.0113V92.5578V92.1654H43.1885H44.4218V96.0333C44.4218 98.6119 44.375 99.9946 44.2816 100.181C44.1882 100.368 44.0854 100.536 43.9733 100.686C43.8612 100.835 43.693 100.966 43.4688 101.078C43.2446 101.228 42.9643 101.303 42.628 101.303C42.4411 101.34 42.3196 101.368 42.2636 101.387C42.2075 101.405 42.1795 101.433 42.1795 101.471C42.1795 101.508 42.3477 101.938 42.684 102.76C42.983 103.545 43.1511 103.975 43.1885 104.049C43.1885 104.124 43.0951 104.18 42.9082 104.217C42.7587 104.255 42.5345 104.311 42.2356 104.386C41.974 104.498 41.7311 104.629 41.5068 104.778C41.2452 104.928 40.8715 105.245 40.3857 105.731C39.9373 106.217 39.5636 106.665 39.2646 107.076C39.003 107.45 38.8722 107.646 38.8722 107.665C38.8722 107.684 40.1615 107.693 42.7401 107.693H46.664V108.254V108.758H36.4057H26.1475V108.254V107.693H30.3517C33.1171 107.693 34.5092 107.684 34.5278 107.665C34.5465 107.646 34.4998 107.469 34.3877 107.132C34.2756 106.796 34.1261 106.441 33.9393 106.067C33.7898 105.694 33.6029 105.357 33.3787 105.058C33.1545 104.722 32.8929 104.404 32.5939 104.105C32.2576 103.732 31.996 103.47 31.8091 103.321C31.6223 103.134 31.4354 102.975 31.2486 102.844C31.0617 102.713 30.9683 102.592 30.9683 102.48V102.256L31.641 102.312C32.1268 102.312 32.5565 102.368 32.9302 102.48C33.2666 102.554 33.6777 102.704 34.1635 102.928C34.5746 103.152 34.967 103.451 35.3407 103.825C35.7144 104.199 35.9573 104.479 36.0694 104.666L36.2376 105.002L35.7891 105.731C35.3407 106.516 35.0978 106.946 35.0604 107.02C34.8362 107.357 34.7054 107.562 34.668 107.637C34.668 107.637 34.6867 107.646 34.724 107.665C34.7614 107.684 34.8548 107.693 35.0043 107.693C35.1538 107.693 35.35 107.693 35.5929 107.693C35.8358 107.693 36.1815 107.693 36.63 107.693H38.648V107.581C38.6106 107.469 38.648 107.188 38.7601 106.74C38.8722 106.254 39.0217 105.731 39.2085 105.17C39.4328 104.573 39.6383 104.049 39.8251 103.601C40.0867 103.115 40.3203 102.713 40.5259 102.396C40.7314 102.078 40.9463 101.807 41.1705 101.583C41.3947 101.359 41.5909 101.209 41.7591 101.134C41.9272 101.06 42.0113 100.929 42.0113 100.742V100.406H36.8542H31.697L31.4728 100.686C31.3233 100.873 31.1178 101.022 30.8562 101.134C30.5946 101.247 30.3143 101.303 30.0153 101.303H29.5108V96.762C29.5108 93.735 29.5295 92.2028 29.5669 92.1654C29.6043 92.1281 29.9966 92.1094 30.7441 92.1094L31.8652 92.1654ZM31.9212 99.3967H42.0113V94.1274H31.9212V99.3967Z" fill="white"/>
<path d="M17.1532 88.8583C17.1905 88.8957 17.2466 89.232 17.3213 89.8673C17.3961 90.5026 17.4241 90.8296 17.4054 90.8483C17.3867 90.867 17.0037 90.951 16.2563 91.1005C15.4341 91.2874 14.5372 91.4555 13.5656 91.605C12.3323 91.7919 11.6223 91.904 11.4354 91.9414L10.8749 91.9974V94.1276V96.2016H10.987C11.0991 96.2016 12.3884 96.0335 14.8549 95.6971C17.3213 95.3608 18.5733 95.2113 18.6106 95.2487C18.648 95.286 18.6854 95.4729 18.7227 95.8092C18.7601 96.1456 18.7695 96.3231 18.7508 96.3418C18.7321 96.3605 17.4334 96.538 14.8549 96.8743C14.2569 96.9864 13.631 97.0798 12.977 97.1546C12.323 97.2293 11.8278 97.2947 11.4915 97.3508C11.1552 97.4068 10.9683 97.4349 10.9309 97.4349C10.8936 97.4349 10.8749 98.2196 10.8749 99.7892V102.144H11.0991C11.3607 102.106 13.1545 101.863 16.4805 101.415C19.8812 100.929 21.5909 100.714 21.6096 100.77C21.6283 100.826 21.6563 101.004 21.6937 101.303C21.7311 101.602 21.7311 101.789 21.6937 101.863C21.6563 101.863 21.1331 101.938 20.1241 102.088C20.0868 102.088 18.293 102.33 14.7428 102.816C12.1642 103.153 10.8749 103.321 10.8749 103.321C10.8749 103.321 10.8749 104.367 10.8749 106.46L10.8188 109.543H15.4715H20.0681V109.207C20.1055 108.982 20.1615 108.758 20.2363 108.534C20.3484 108.31 20.4605 108.142 20.5726 108.029C20.6847 107.917 20.8529 107.805 21.0771 107.693C21.2639 107.581 21.5069 107.525 21.8058 107.525H22.2543V109.038C22.2543 109.973 22.273 110.664 22.3103 111.113V111.673H15.9199H9.52954L9.1932 111.841C8.93161 111.953 8.72607 112.028 8.57658 112.065H8.35236V107.861C8.35236 105.096 8.33367 103.713 8.2963 103.713C8.22156 103.713 7.49283 103.807 6.11012 103.993C4.4658 104.218 3.15783 104.386 2.18619 104.498C0.915583 104.685 0.261595 104.778 0.224224 104.778C0.186854 104.778 0.149483 104.666 0.112112 104.442C0.0747414 104.106 0.0373707 103.919 0 103.881C0 103.732 0.0747415 103.638 0.224224 103.601C0.298966 103.601 1.15849 103.489 2.8028 103.265C3.25125 103.19 3.93327 103.087 4.84885 102.956C5.76444 102.826 6.37171 102.741 6.67068 102.704C7.38072 102.629 7.90391 102.555 8.24025 102.48H8.35236V100.126V97.8273H8.24025C8.05339 97.8273 7.00701 97.958 5.1011 98.2196C3.12046 98.4812 2.11145 98.5934 2.07408 98.556C2.07408 98.556 2.04605 98.3878 1.98999 98.0515C1.93394 97.7151 1.92459 97.5283 1.96196 97.4909C1.99933 97.4535 2.98966 97.3041 4.93294 97.0425C6.83884 96.7809 7.90391 96.6501 8.12813 96.6501L8.35236 96.594V94.4078V92.2216L8.12813 92.2777C7.94128 92.3151 7.38072 92.3338 6.44645 92.3338C5.47481 92.3338 4.80214 92.2964 4.42843 92.2216C4.0921 92.1843 3.77444 92.1469 3.47548 92.1095C3.17651 92.0348 2.9336 91.9601 2.74675 91.8853C2.5599 91.8106 2.37304 91.6985 2.18619 91.549C2.11145 91.5116 2.04605 91.4742 1.98999 91.4369C1.93394 91.3995 1.91525 91.3808 1.93394 91.3808C1.95262 91.3808 2.05539 91.3621 2.24224 91.3248C2.69069 91.2874 3.17651 91.2313 3.6997 91.1566C4.5966 91.0445 5.53087 90.9324 6.50251 90.8202C7.661 90.6708 8.26827 90.5773 8.32433 90.54C8.38039 90.5026 8.50184 90.4839 8.6887 90.4839C8.87555 90.4839 9.41743 90.4092 10.3143 90.2597C11.4728 90.0355 12.3137 89.8673 12.8368 89.7552C13.8085 89.5683 14.612 89.4002 15.2473 89.2507C15.9573 89.1012 16.4618 88.9891 16.7608 88.9143C16.985 88.8396 17.1158 88.8209 17.1532 88.8583Z" fill="white"/>
<path d="M121.463 88.6968V89.2573C121.463 89.631 121.501 89.9487 121.575 90.2103C121.65 90.5093 121.762 90.8082 121.912 91.1072C122.061 91.4062 122.248 91.6677 122.472 91.892C122.734 92.1536 123.014 92.3591 123.313 92.5086C123.65 92.6581 123.855 92.7422 123.93 92.7608C124.005 92.7795 124.042 92.8449 124.042 92.957V93.1813L123.65 93.1252C123.463 93.0878 123.145 92.9944 122.697 92.8449C122.323 92.7328 121.987 92.5833 121.688 92.3965C121.389 92.2096 121.127 92.0041 120.903 91.7799C120.716 91.5556 120.548 91.3127 120.398 91.0511C120.249 90.7895 120.155 90.5093 120.118 90.2103L120.006 89.7618H118.773L117.483 89.7058L117.371 90.1542C117.334 90.4532 117.25 90.7428 117.119 91.0231C116.988 91.3034 116.773 91.5743 116.474 91.8359C116.213 92.1349 115.876 92.3778 115.465 92.5646C115.054 92.7515 114.681 92.901 114.344 93.0131C114.008 93.0878 113.774 93.1252 113.644 93.1252C113.513 93.1252 113.447 93.0691 113.447 92.957C113.447 92.8449 113.559 92.7515 113.784 92.6768C114.008 92.602 114.232 92.4899 114.456 92.3404C114.643 92.2283 114.849 92.0601 115.073 91.8359C115.297 91.5743 115.447 91.3688 115.521 91.2193C115.671 90.9951 115.792 90.7241 115.886 90.4065C115.979 90.0888 116.026 89.7245 116.026 89.3134V88.6968H118.717H121.463ZM113.503 88.7528L113.559 89.2573V89.7058H109.355H105.207L105.151 93.91C105.151 96.6754 105.132 98.1142 105.095 98.2263C105.058 98.3384 105.048 98.3945 105.067 98.3945C105.086 98.3945 105.17 98.3945 105.319 98.3945C105.469 98.3945 105.749 98.2076 106.16 97.8339C106.534 97.4602 106.851 97.1052 107.113 96.7688C107.375 96.4325 107.599 96.0962 107.786 95.7598L108.066 95.2553L106.721 95.1993H105.319V94.6948V94.1903L106.889 94.1342H108.514L108.57 93.7979C108.645 93.5737 108.701 93.3494 108.739 93.1252C108.776 92.8636 108.795 92.6954 108.795 92.6207V92.4525H107.73H106.665L106.552 92.7889C106.478 92.9757 106.375 93.1439 106.244 93.2934C106.113 93.4429 105.992 93.555 105.88 93.6297C105.73 93.6671 105.618 93.6858 105.543 93.6858C105.469 93.6858 105.431 93.1999 105.431 92.2283L105.487 90.7148H106.104L106.777 90.6587V91.0511V91.4435H109.916H113.111V91.948V92.4525L111.71 92.5086H110.252L110.084 93.2373C109.972 93.6858 109.897 93.9474 109.86 94.0221L110.14 94.1342C110.29 94.1342 110.794 94.1342 111.654 94.1342L113.503 94.1903V94.6948V95.1993H111.429C110.047 95.1993 109.337 95.2366 109.299 95.3114C109.262 95.3861 109.262 95.4422 109.299 95.4796C109.299 95.4796 109.467 95.5169 109.804 95.5917C110.14 95.6664 110.495 95.7598 110.869 95.8719C111.317 96.0214 111.654 96.1709 111.878 96.3204C112.102 96.4699 112.308 96.6194 112.494 96.7688L112.775 96.9931L112.214 97.5536L111.654 98.1142L111.485 97.89C111.411 97.7031 111.242 97.4789 110.981 97.2173C110.719 96.9557 110.439 96.7128 110.14 96.4886C109.841 96.2643 109.598 96.0962 109.411 95.9841L109.019 95.8159L108.739 96.2643C108.514 96.6007 108.234 96.9183 107.898 97.2173C107.524 97.591 107.188 97.8713 106.889 98.0581L106.44 98.3945H109.972H113.559V98.955V99.4595H109.019H104.478L104.086 99.6838C103.787 99.8332 103.469 99.908 103.133 99.908H102.685V94.3024V88.6968H108.122L113.503 88.7528ZM122.472 93.7979V94.3024C122.472 94.6013 122.472 94.7695 122.472 94.8069C122.398 94.8443 122.295 94.9937 122.164 95.2553C122.033 95.5169 121.856 95.8159 121.632 96.1522C121.37 96.4886 121.146 96.7315 120.959 96.881C120.809 97.0304 120.623 97.2173 120.398 97.4415L120.006 97.7218L120.398 97.8339C120.548 97.9087 120.847 98.0021 121.295 98.1142C121.632 98.2263 122.005 98.3197 122.416 98.3945C122.79 98.4692 123.052 98.5066 123.201 98.5066C123.313 98.5066 123.379 98.5159 123.397 98.5346C123.416 98.5533 123.407 98.6187 123.369 98.7308C123.369 98.8055 123.351 99.0298 123.313 99.4035L123.257 99.8519L122.809 99.7959C122.51 99.7959 122.155 99.7398 121.744 99.6277C121.445 99.553 121.127 99.4595 120.791 99.3474C120.454 99.2727 120.043 99.1045 119.557 98.8429L118.717 98.4505L118.212 98.6748C117.913 98.8242 117.539 98.9737 117.091 99.1232C116.643 99.2727 116.25 99.4035 115.914 99.5156C115.54 99.5903 115.204 99.6651 114.905 99.7398C114.568 99.8146 114.363 99.8519 114.288 99.8519C114.176 99.8519 114.12 99.7959 114.12 99.6838C114.12 99.5716 114.148 99.4969 114.204 99.4595C114.26 99.4222 114.494 99.3287 114.905 99.1793C115.353 99.0298 115.876 98.7869 116.474 98.4505C117.147 98.1142 117.521 97.9273 117.595 97.89C117.67 97.8152 117.708 97.7779 117.708 97.7779C117.708 97.7405 117.539 97.591 117.203 97.3294C116.867 97.1052 116.53 96.8062 116.194 96.4325C115.858 96.0588 115.559 95.7038 115.297 95.3674C114.998 95.0311 114.774 94.8629 114.625 94.8629H114.4V94.3584V93.7979H118.436H122.472ZM118.044 94.8629C116.4 94.8629 115.577 94.8723 115.577 94.891C115.577 94.9097 115.764 95.0685 116.138 95.3674C116.474 95.629 116.885 95.928 117.371 96.2643C117.857 96.6007 118.193 96.8249 118.38 96.937L118.661 97.1052L118.885 96.881C119.072 96.7315 119.24 96.582 119.389 96.4325C119.501 96.3204 119.67 96.1149 119.894 95.8159C120.081 95.5543 120.23 95.3301 120.342 95.1432L120.51 94.8629H118.044Z" fill="white"/>
<path d="M122.927 101.154V101.439V101.933H119.367H115.857V102.495V103.266H117.587H119.316V103.123V103.009H120.435H121.503V106.918C121.537 109.524 121.52 110.893 121.452 111.027C121.418 111.16 121.367 111.283 121.3 111.398C121.232 111.512 121.096 111.616 120.893 111.711C120.723 111.826 120.554 111.911 120.384 111.968C120.181 112.025 119.96 112.054 119.723 112.054H119.316V111.683V111.341H112.755H106.143L105.991 111.483C105.923 111.578 105.821 111.669 105.685 111.754C105.55 111.84 105.38 111.911 105.177 111.968C104.973 112.025 104.736 112.054 104.465 112.054H104.058L104.109 107.546V103.009H105.177H106.296V103.123V103.266H108.178H110.059V102.495V101.933H106.347H102.685V101.439C102.685 101.268 102.693 101.178 102.71 101.168C102.727 101.159 106.109 101.154 112.857 101.154H122.927ZM106.296 103.808V107.289V110.77H112.806H119.316V107.289V103.808H117.587H115.857V105.149V105.825H117.129H118.4V106.747V107.003H117.027H115.654L115.501 107.146C115.4 107.241 115.281 107.327 115.145 107.403C114.976 107.46 114.823 107.508 114.688 107.546C114.518 107.603 114.315 107.631 114.077 107.631H113.67V105.719V103.808H112.958H112.297L112.246 104.236C112.212 104.54 112.162 104.787 112.094 104.978C112.026 105.168 111.941 105.348 111.839 105.52C111.704 105.691 111.534 105.891 111.331 106.119C111.127 106.347 110.907 106.556 110.67 106.747C110.432 106.918 110.161 107.089 109.856 107.26C109.517 107.431 109.212 107.574 108.94 107.688C108.669 107.802 108.364 107.907 108.025 108.002C107.754 108.097 107.55 108.154 107.415 108.173L107.262 108.202V107.974V107.745L107.567 107.603C107.737 107.546 107.957 107.45 108.228 107.317C108.466 107.203 108.686 107.07 108.89 106.918C109.093 106.766 109.246 106.623 109.347 106.49C109.517 106.338 109.644 106.185 109.729 106.033C109.814 105.881 109.89 105.7 109.958 105.491C110.025 105.301 110.059 104.978 110.059 104.521V103.808H108.178H106.296ZM112.246 103.266H113.67V101.933H112.246V103.266ZM118.35 109.718L107.262 109.747V108.744H118.35V109.718Z" fill="white"/>
<path d="M62.245 89.3443C62.0339 88.9126 61.9107 88.6968 61.8755 88.6968L61.3477 88.9126C60.9958 89.0205 60.5559 89.1644 60.0281 89.3443C59.5354 89.4882 58.9724 89.6321 58.339 89.776C57.7056 89.9558 57.125 90.0997 56.5971 90.2076C56.0341 90.3156 55.3831 90.4415 54.6442 90.5854C53.87 90.6933 53.2718 90.7652 52.8495 90.8012C52.3569 90.8731 52.0754 90.9451 52.005 91.017L51.8994 91.1789H52.7439C53.307 91.2149 54.0459 91.2329 54.9609 91.2329H56.2804L58.0751 91.1789L58.339 91.1249C58.3742 91.1249 58.4886 91.116 58.6821 91.098C58.8756 91.08 59.0252 91.071 59.1308 91.071C59.4123 91.035 59.7466 90.9631 60.1336 90.8552C60.4855 90.7832 60.9782 90.6213 61.6116 90.3695C62.245 90.1177 62.5793 89.9918 62.6145 89.9918C62.6145 89.9558 62.4913 89.74 62.245 89.3443Z" fill="white"/>
<path d="M58.3815 91.032V91.7047L58.4376 96.7123H59.6147H60.7919V96.4881V96.2078L62.0252 96.1518H63.2023V98.0016C63.2023 99.1975 63.1743 102.172 63.1183 102.452C63.0622 102.732 62.9781 102.984 62.866 103.209C62.7539 103.395 62.6324 103.564 62.5016 103.713C62.3708 103.863 62.1746 104.012 61.913 104.162C61.6515 104.274 61.4085 104.33 61.1843 104.33C60.9601 104.33 60.8293 104.292 60.7919 104.218C60.7919 104.143 60.7919 104.012 60.7919 103.825V103.489H59.6147H58.4376V103.763V104.267V104.772V105.276V105.333V105.501V105.737H60.2874H62.1933V106.242V106.746H60.2874H58.4376L58.3815 107.251C58.3815 107.587 58.3255 107.905 58.2133 108.204C58.1386 108.465 58.1012 108.596 58.1012 108.596C58.1012 108.596 58.8113 108.484 60.2314 108.26C61.6888 108.036 62.4362 107.924 62.4736 107.924C62.5857 107.924 62.6418 108.092 62.6418 108.428L62.5857 108.989L61.913 109.101C61.2777 109.213 59.7829 109.456 57.4286 109.829C56.8306 109.904 55.1116 110.166 52.2714 110.614C52.0472 110.652 51.8136 110.698 51.5707 110.754C51.3278 110.81 51.1316 110.848 50.9821 110.866C50.8326 110.885 50.7579 110.895 50.7579 110.895C50.6831 110.895 50.6364 110.876 50.6177 110.838C50.5991 110.801 50.6084 110.633 50.6458 110.334V109.829L50.926 109.773C51.7108 109.624 52.5517 109.493 53.4486 109.381C54.9808 109.119 55.7656 108.989 55.8029 108.989L55.9711 108.933V107.867V106.746H53.7289H51.4866V106.242V105.737H53.7289H55.9711V105.501V105.333V105.276V104.772V104.267V103.763V103.489H54.6258H53.2804L53.1122 103.713C52.9628 103.863 52.7572 104.003 52.4956 104.134C52.234 104.264 51.9911 104.33 51.7669 104.33H51.4306V99.1227V96.2078L52.6077 96.1518H53.7849V96.4321V96.7123H54.906H55.9711V91.7047C55.9711 91.2936 55.9898 91.0787 56.0272 91.06C56.0645 91.0413 56.4569 91.032 57.2043 91.032H58.3815ZM53.7849 97.8335V98.7864C53.7849 99.4591 53.7849 102.087 53.7849 102.2L53.7289 102.424H54.85H55.9711V99.0106V97.8335H54.906H53.7849ZM58.4376 102.424H60.7919V97.8335H58.4376V102.424Z" fill="white"/>
<path d="M67.7432 91.0511V88.6968H66.566C65.7812 88.6968 65.3888 88.7155 65.3888 88.7528C65.3515 88.7528 65.3328 89.5376 65.3328 91.1072V93.4055H64.0995H62.8663V93.966V94.5266H64.0995H65.3328V99.8519C65.3328 103.44 65.2954 105.364 65.2207 105.626C65.1459 105.887 65.0338 106.186 64.8843 106.523C64.7348 106.822 64.5013 107.177 64.1836 107.588C63.866 107.999 63.5577 108.354 63.2587 108.653C62.9224 108.989 62.5673 109.307 62.1936 109.606C61.8199 109.905 61.4275 110.185 61.0165 110.447C60.568 110.745 60.1196 111.026 59.6711 111.287C59.1853 111.549 58.9424 111.736 58.9424 111.848C58.9424 111.96 58.9611 112.016 58.9984 112.016C59.0732 112.016 59.3348 111.941 59.7832 111.792C60.269 111.605 60.6801 111.437 61.0165 111.287C61.4649 111.101 61.876 110.914 62.2497 110.727C62.6234 110.54 62.9971 110.316 63.3708 110.054C63.7072 109.83 64.0435 109.587 64.3798 109.325C64.7535 109.026 65.0712 108.727 65.3328 108.429C65.6317 108.092 65.8933 107.793 66.1176 107.532C66.3792 107.158 66.5473 106.896 66.6221 106.747C66.7716 106.523 66.9397 106.205 67.1266 105.794C67.2761 105.383 67.4069 104.972 67.519 104.561L67.6871 103.944L67.7432 99.2353V94.5266H68.9204H70.0415V102.599V110.671H70.4899H70.9384L71.2747 110.334C71.499 110.11 71.6858 109.867 71.8353 109.606C71.9848 109.307 72.1156 109.026 72.2277 108.765C72.3024 108.466 72.3585 108.204 72.3958 107.98C72.4332 107.831 72.4519 107.111 72.4519 105.822V100.3V93.0131H71.2747H70.0415V93.2373V93.4055H68.9204H67.7432V91.0511Z" fill="white"/>
<path d="M51.8994 94.434H62.4255V93.3689H51.8994V94.434Z" fill="white"/>
<path d="M53.4541 100.662H62.4231V99.5967H53.4541V100.662Z" fill="white"/>
<path d="M144.378 88.802V89.0262C144.378 89.1757 144.34 89.3999 144.266 89.6989C144.191 89.9979 144.079 90.2781 143.929 90.5397C143.817 90.8387 143.649 91.0816 143.425 91.2685L143.145 91.5487L145.891 91.4927C147.76 91.4927 148.825 91.474 149.086 91.4366H149.535L149.647 92.0533C149.722 92.5391 149.815 92.9501 149.927 93.2865C150.039 93.6602 150.17 93.9965 150.32 94.2955C150.469 94.5945 150.535 94.7533 150.516 94.772C150.497 94.7907 150.301 94.7253 149.927 94.5758C149.554 94.4637 149.236 94.3329 148.974 94.1834C148.713 93.9965 148.47 93.8097 148.246 93.6228C148.021 93.3986 147.835 93.1744 147.685 92.9501L147.517 92.6138H143.481H139.501L139.277 93.0623C139.127 93.3239 138.903 93.6041 138.604 93.9031C138.305 94.2021 137.95 94.445 137.539 94.6318C137.128 94.8187 136.829 94.9495 136.642 95.0242C136.493 95.0616 136.408 95.0709 136.39 95.0523C136.371 95.0336 136.436 94.8374 136.586 94.4637C136.773 94.09 136.922 93.6602 137.034 93.1744C137.184 92.6886 137.259 92.2962 137.259 91.9972V91.5487H139.613H141.967V90.1473V88.802H143.201H144.378ZM130.756 89.811V90.0913V90.3716H131.765H132.774V90.1473V89.8671H133.951H135.185V92.3335C135.185 93.9405 135.147 94.8934 135.072 95.1924C135.035 95.4914 134.96 95.753 134.848 95.9772C134.736 96.2014 134.587 96.4069 134.4 96.5938C134.176 96.818 133.989 96.9488 133.839 96.9862C133.727 97.0609 133.671 97.1076 133.671 97.1263C133.671 97.145 133.718 97.1637 133.811 97.1824C133.905 97.2011 134.082 97.3225 134.344 97.5467C134.568 97.771 134.736 97.9952 134.848 98.2194C134.96 98.4436 135.035 98.7052 135.072 99.0042C135.147 99.3032 135.185 100.256 135.185 101.863V104.33H133.335L131.485 104.273V103.769V103.264H132.101H132.774V97.3786V91.4927H131.765H130.756V100.406C130.756 106.31 130.728 109.403 130.672 109.683C130.616 109.963 130.532 110.197 130.42 110.384C130.308 110.608 130.186 110.795 130.055 110.944C129.925 111.094 129.728 111.224 129.467 111.337C129.205 111.486 128.962 111.561 128.738 111.561H128.346V100.63V89.755H129.523L130.756 89.811ZM150.656 100.406V100.966V101.471H148.19H145.723L145.667 105.282C145.667 107.076 145.658 108.169 145.639 108.562C145.62 108.954 145.574 109.244 145.499 109.431C145.424 109.692 145.312 109.935 145.163 110.159L144.938 110.44H146.9H148.806V109.991C148.844 109.655 148.9 109.375 148.974 109.15C149.049 108.963 149.189 108.767 149.395 108.562C149.6 108.356 149.815 108.197 150.039 108.085C150.264 107.973 150.404 107.917 150.46 107.917C150.516 107.917 150.544 108.515 150.544 109.711V111.561H146.844H143.201L143.145 106.516V101.471H142.584H141.967L141.911 101.695C141.911 101.882 141.911 102.069 141.911 102.255C141.911 102.517 141.855 102.928 141.743 103.489C141.668 104.124 141.575 104.666 141.463 105.114C141.313 105.637 141.164 106.123 141.014 106.572C140.865 106.983 140.678 107.394 140.454 107.805C140.267 108.216 140.061 108.59 139.837 108.926C139.613 109.225 139.314 109.58 138.94 109.991C138.604 110.365 138.249 110.664 137.875 110.888C137.576 111.112 137.277 111.299 136.978 111.449C136.642 111.561 136.324 111.673 136.025 111.785C135.689 111.86 135.334 111.934 134.96 112.009C134.624 112.047 134.418 112.037 134.344 111.981C134.269 111.925 134.325 111.86 134.512 111.785C134.549 111.748 134.605 111.71 134.68 111.673C135.054 111.486 135.334 111.337 135.521 111.224C135.782 111.038 136.072 110.785 136.39 110.468C136.707 110.15 137.016 109.767 137.315 109.319C137.614 108.87 137.857 108.459 138.043 108.085C138.23 107.674 138.417 107.188 138.604 106.628C138.791 106.03 138.94 105.488 139.052 105.002C139.165 104.554 139.258 104.087 139.333 103.601C139.37 103.264 139.407 102.835 139.445 102.312C139.482 101.863 139.501 101.601 139.501 101.527C139.464 101.489 138.866 101.471 137.707 101.471H135.969V100.966V100.406H143.313H150.656ZM147.629 97.4346H137.931V96.3135H147.629V97.4346Z" fill="white"/>
</svg>
